<svg width="464" height="108" viewBox="0 0 464 108" fill="none" xmlns="http://www.w3.org/2000/svg">
<path d="M62.315 12.6243C70.1683 10.8553 80.8997 18.4009 78.0215 25.9515C87.1836 18.7559 96.3457 24.6524 98.5695 32.0828C95.0366 27.7204 86.9226 28.8997 81.0332 28.6648C92.8131 30.079 103.418 36.5651 103.284 48.2434C98.1816 42.5819 88.8865 42.4668 78.549 30.7887C84.5719 39.3985 86.9237 56.8534 81.2997 68.0567C83.5238 58.8573 74.4946 45.0605 74.2339 35.2712C69.2591 42.8168 61.1452 58.857 59.0484 84.6812C57.085 84.2113 55.1217 83.9718 53.1584 83.9718C54.9888 61.7999 61.2724 46.4691 66.3754 37.2694C63.8907 38.2138 61.2729 38.9185 58.7829 39.628C57.9956 37.0345 56.9526 34.6759 55.6437 32.7872C61.1399 29.7191 67.2906 28.3049 70.4353 27.6002C60.7466 28.4247 53.2864 25.3568 48.0509 25.3568C47.5294 25.0021 46.875 24.6474 46.2206 24.2973C54.4676 16.512 66.6417 20.7594 72.5316 25.1219C67.5517 19.6998 68.5999 14.2733 62.3162 12.6237L62.315 12.6243ZM48.1832 39.0381C46.4806 41.3967 45.3047 44.2251 45.1717 47.6479C47.002 44.6996 49.6198 42.8109 52.5035 41.5165C51.3224 40.8071 49.7528 39.9825 48.1832 39.0381ZM1.06372 55.5482C1.4574 46.4686 12.7106 39.0381 19.3879 24.8866C15.3283 36.0898 16.8981 56.4928 34.1743 63.4483C21.873 52.3648 35.4832 41.2764 25.5336 23.7073C31.1628 30.5481 53.9349 37.1489 57.4675 43.4003C54.5941 26.6555 39.803 22.8829 27.1082 20.2885C48.9651 24.0613 53.1522 13.6826 64.4111 17.9299C56.6908 10.4994 38.8881 9.55504 25.7993 17.6904C33.2589 10.7344 46.7413 9.90515 51.9768 1.53524C39.1488 -0.588434 26.5873 8.49118 24.0965 17.4557C24.8838 11.7941 21.7395 3.0695 27.8901 0.000976562C18.4673 0.240515 14.2805 12.5038 19.1217 18.1644C10.0926 14.2718 1.8459 23.4713 1.97286 29.9574C5.7665 25.71 12.0501 22.7618 17.9398 21.1127C6.55876 26.6544 -1.03362 40.2161 1.06189 55.5469L1.06372 55.5482ZM0.537109 73.2376C0.537109 66.3967 6.68777 60.855 14.2803 60.855C21.8728 60.855 28.0234 66.3967 28.0234 73.2376C28.0234 80.0784 21.8728 85.6202 14.2803 85.6202C6.68777 85.6202 0.537109 80.0784 0.537109 73.2376ZM30.6412 30.1934C31.2956 32.6718 31.5564 35.0304 31.6893 37.2691C38.1007 48.9423 43.6021 64.5132 44.778 84.7958C46.7413 84.326 48.7047 83.9712 50.668 83.8515C49.2261 62.0346 42.9477 45.4042 35.8764 33.0216C34.0461 32.0818 32.3438 31.1376 30.6412 30.1934ZM103.417 90.1027H66.2425C62.1829 87.7441 57.3411 86.21 52.2389 86.21C47.0034 86.21 42.1616 87.6243 38.2353 90.1027H1.19286V94.2302H32.9998C29.4669 97.8879 27.2428 102.485 26.8491 107.557H77.5012C77.1075 102.485 74.8834 97.8881 71.3505 94.2302H103.284L103.417 90.1027Z" fill="#E8451F"/>
<path d="M445.184 107.478H443.582V98.0732H445.752C446.338 100.554 447.182 102.362 448.284 103.499C449.387 104.636 450.816 105.204 452.573 105.204C453.848 105.204 454.83 104.946 455.519 104.429C456.242 103.878 456.604 103.137 456.604 102.207C456.604 101.242 456.173 100.312 455.312 99.4167C454.451 98.4866 453.055 97.5048 451.126 96.4713C448.508 95.0589 446.631 93.6637 445.494 92.2858C444.357 90.8734 443.789 89.2887 443.789 87.5318C443.789 86.395 443.995 85.3443 444.409 84.3797C444.857 83.3807 445.442 82.5195 446.166 81.7961C446.924 81.0727 447.819 80.5215 448.853 80.1425C449.886 79.7291 451.006 79.5225 452.211 79.5225C453.279 79.5225 454.33 79.6775 455.364 79.9875C456.431 80.2976 457.362 80.7282 458.154 81.2794L459.084 80.0392H460.428V87.8419H458.412C457.62 85.8783 456.793 84.4659 455.932 83.6046C455.105 82.7434 454.089 82.3128 452.883 82.3128C451.919 82.3128 451.144 82.5712 450.558 83.0879C450.007 83.6046 449.731 84.2936 449.731 85.1549C449.731 86.1194 450.145 87.0323 450.971 87.8935C451.833 88.7548 453.245 89.7021 455.209 90.7356C456.586 91.4935 457.775 92.2341 458.774 92.9575C459.773 93.681 460.583 94.4216 461.203 95.1795C461.823 95.9029 462.271 96.678 462.546 97.5048C462.856 98.2971 463.011 99.1583 463.011 100.088C463.011 101.294 462.787 102.379 462.339 103.344C461.892 104.308 461.254 105.135 460.428 105.824C459.601 106.513 458.602 107.047 457.43 107.426C456.294 107.805 455.019 107.994 453.607 107.994C452.125 107.994 450.747 107.805 449.473 107.426C448.198 107.013 447.147 106.427 446.321 105.669L445.184 107.478Z" fill="#E8451F"/>
<path d="M416.53 99.058C416.53 100.47 416.565 101.59 416.634 102.417C416.737 103.209 416.926 103.829 417.202 104.277C417.512 104.69 417.96 104.966 418.545 105.104C419.166 105.242 419.992 105.345 421.026 105.414V107.481H404.749V105.414C405.748 105.345 406.54 105.242 407.126 105.104C407.746 104.966 408.211 104.69 408.521 104.277C408.865 103.864 409.089 103.278 409.193 102.52C409.296 101.762 409.348 100.729 409.348 99.4197V92.9605C409.348 90.9281 409.313 89.2917 409.244 88.0516C409.175 86.777 409.089 85.9157 408.986 85.4679C408.883 85.0201 408.745 84.6584 408.573 84.3828C408.4 84.0727 408.142 83.8488 407.797 83.711C407.453 83.5388 407.022 83.4354 406.506 83.401C405.989 83.3321 405.334 83.2976 404.542 83.2976V81.5407L414.515 79.5771L415.187 84.1244H415.393C416.53 82.6775 417.874 81.558 419.424 80.7656C420.974 79.9733 422.679 79.5771 424.54 79.5771C426.744 79.5771 428.518 79.8872 429.862 80.5073C431.24 81.0929 432.463 82.0919 433.531 83.5043C434.116 84.2966 434.633 85.3301 435.081 86.6047C435.529 87.8449 435.753 89.5673 435.753 91.772V99.058C435.753 100.47 435.787 101.59 435.856 102.417C435.959 103.209 436.149 103.829 436.424 104.277C436.734 104.69 437.182 104.966 437.768 105.104C438.354 105.242 439.146 105.345 440.145 105.414V107.481H423.971V105.414C425.005 105.379 425.814 105.293 426.4 105.155C427.02 104.983 427.485 104.69 427.795 104.277C428.105 103.864 428.312 103.278 428.415 102.52C428.518 101.728 428.57 100.694 428.57 99.4197V92.3921C428.57 90.6352 428.467 89.1539 428.26 87.9482C428.053 86.7425 427.709 85.7779 427.227 85.0545C426.779 84.2966 426.176 83.7627 425.418 83.4526C424.66 83.1082 423.713 82.9359 422.576 82.9359C421.474 82.9359 420.526 83.246 419.734 83.866C418.942 84.4861 418.253 85.3473 417.667 86.4497C417.357 87.0698 417.081 87.8793 416.84 88.8783C416.634 89.8429 416.53 90.8592 416.53 91.9271V99.058Z" fill="#E8451F"/>
<path d="M386.087 79.5771C388.154 79.5771 390.1 79.9389 391.926 80.6623C393.786 81.3513 395.405 82.3158 396.783 83.556C398.196 84.7961 399.298 86.2775 400.09 87.9999C400.917 89.6879 401.33 91.5481 401.33 93.5806C401.33 95.682 400.917 97.6111 400.09 99.368C399.298 101.125 398.196 102.641 396.783 103.915C395.405 105.19 393.786 106.189 391.926 106.912C390.1 107.636 388.154 107.997 386.087 107.997C384.054 107.997 382.125 107.653 380.299 106.964C378.474 106.241 376.872 105.242 375.494 103.967C374.116 102.692 373.031 101.177 372.238 99.4197C371.446 97.6284 371.05 95.682 371.05 93.5806C371.05 91.5481 371.446 89.6707 372.238 87.9482C373.031 86.2258 374.116 84.7445 375.494 83.5043C376.872 82.2642 378.474 81.2996 380.299 80.6106C382.125 79.9216 384.054 79.5771 386.087 79.5771ZM386.087 82.5742C385.053 82.5742 384.106 82.8498 383.245 83.401C382.383 83.9177 381.643 84.6584 381.023 85.6229C380.437 86.5875 379.972 87.7588 379.628 89.1367C379.318 90.4802 379.163 91.9787 379.163 93.6323C379.163 95.3547 379.318 96.9049 379.628 98.2829C379.972 99.6608 380.437 100.832 381.023 101.797C381.643 102.761 382.366 103.519 383.193 104.07C384.054 104.587 385.019 104.845 386.087 104.845C387.155 104.845 388.119 104.587 388.98 104.07C389.876 103.519 390.634 102.761 391.254 101.797C391.874 100.798 392.356 99.6092 392.701 98.2312C393.045 96.8533 393.218 95.3203 393.218 93.6323C393.218 91.9787 393.045 90.4802 392.701 89.1367C392.356 87.7932 391.874 86.6392 391.254 85.6746C390.634 84.6756 389.876 83.9177 388.98 83.401C388.119 82.8498 387.155 82.5742 386.087 82.5742Z" fill="#E8451F"/>
<path d="M363.746 99.0072C363.746 100.385 363.798 101.488 363.901 102.314C364.004 103.141 364.211 103.778 364.521 104.226C364.831 104.674 365.279 104.984 365.865 105.156C366.45 105.294 367.243 105.38 368.242 105.415V107.482H351.965V105.415C352.929 105.38 353.704 105.277 354.29 105.105C354.91 104.898 355.375 104.588 355.685 104.175C356.029 103.727 356.253 103.124 356.357 102.366C356.495 101.574 356.563 100.575 356.563 99.3689V93.0131C356.563 91.0151 356.529 89.3787 356.46 88.1041C356.391 86.7951 356.305 85.8994 356.202 85.4171C356.029 84.5559 355.633 83.9875 355.013 83.7119C354.428 83.4363 353.342 83.2985 351.758 83.2985V81.5416L363.746 79.578V99.0072ZM356.15 68.6233C356.15 67.4865 356.529 66.5391 357.287 65.7813C358.079 64.9889 359.027 64.5928 360.129 64.5928C361.266 64.5928 362.213 64.9889 362.971 65.7813C363.763 66.5391 364.159 67.4865 364.159 68.6233C364.159 69.7257 363.763 70.673 362.971 71.4653C362.213 72.2232 361.266 72.6021 360.129 72.6021C359.027 72.6021 358.079 72.2232 357.287 71.4653C356.529 70.673 356.15 69.7257 356.15 68.6233Z" fill="#E8451F"/>
<path d="M332.024 82.9392V80.6139C334.091 80.0283 335.814 79.1499 337.192 77.9786C338.604 76.7729 339.655 75.3949 340.344 73.8447H342.979V80.0972H348.922V82.9392H342.979V98.8029C342.979 100.939 343.203 102.455 343.651 103.35C344.133 104.246 344.926 104.694 346.028 104.694C347.371 104.694 348.388 104.074 349.077 102.833L350.162 104.332C349.197 106.778 346.924 108.001 343.341 108.001C340.964 108.001 339.104 107.45 337.76 106.347C336.451 105.245 335.797 103.695 335.797 101.697V82.9392H332.024Z" fill="#E8451F"/>
<path d="M318.838 92.7538C315.944 94.0629 313.757 95.2858 312.276 96.4227C310.829 97.525 310.105 98.6791 310.105 99.8848C310.105 100.884 310.381 101.676 310.932 102.262C311.483 102.847 312.172 103.14 312.999 103.14C313.826 103.14 314.601 103.002 315.324 102.727C316.048 102.417 316.668 102.021 317.185 101.538C317.701 101.056 318.097 100.488 318.373 99.8331C318.683 99.1441 318.838 98.4207 318.838 97.6628V92.7538ZM318.838 90.0152V87.8449C318.838 85.8468 318.476 84.4 317.753 83.5043C317.064 82.5742 315.979 82.1091 314.498 82.1091C313.498 82.1091 312.741 82.3847 312.224 82.9359C311.707 83.4526 311.225 84.3311 310.777 85.5713C310.467 86.4325 310.019 87.1042 309.434 87.5865C308.882 88.0688 308.107 88.3099 307.108 88.3099C306.144 88.3099 305.403 88.0171 304.886 87.4315C304.37 86.8459 304.111 86.0191 304.111 84.9512C304.111 83.2976 305.007 81.9886 306.798 81.024C308.624 80.0594 311.363 79.5771 315.014 79.5771C318.873 79.5771 321.628 80.2833 323.282 81.6958C324.936 83.0737 325.762 85.399 325.762 88.6717V99.9881C325.762 102.916 326.348 104.38 327.519 104.38C328.174 104.38 328.777 104.156 329.328 103.709L330.103 105.207C329.621 106.068 328.863 106.757 327.829 107.274C326.83 107.756 325.693 107.997 324.419 107.997C322.834 107.997 321.628 107.515 320.802 106.551C319.975 105.586 319.562 104.225 319.562 102.468H319.303C318.304 104.26 317.012 105.621 315.428 106.551C313.843 107.481 312.034 107.946 310.002 107.946C307.832 107.946 306.092 107.343 304.783 106.137C303.474 104.897 302.819 103.295 302.819 101.332C302.819 99.8159 303.491 98.4035 304.835 97.0944C306.178 95.7509 308.417 94.4418 311.552 93.1672L318.838 90.0152Z" fill="#E8451F"/>
<path d="M276.798 99.058C276.798 100.47 276.832 101.59 276.901 102.417C277.004 103.209 277.194 103.829 277.47 104.277C277.78 104.69 278.227 104.966 278.813 105.104C279.433 105.242 280.26 105.345 281.293 105.414V107.481H265.016V105.414C266.015 105.345 266.808 105.242 267.393 105.104C268.013 104.966 268.478 104.69 268.788 104.277C269.133 103.864 269.357 103.278 269.46 102.52C269.564 101.762 269.615 100.729 269.615 99.4197V92.9605C269.615 90.9281 269.581 89.2917 269.512 88.0516C269.443 86.777 269.357 85.9157 269.253 85.4679C269.15 85.0201 269.012 84.6584 268.84 84.3828C268.668 84.0727 268.409 83.8488 268.065 83.711C267.72 83.5388 267.29 83.4354 266.773 83.401C266.256 83.3321 265.602 83.2976 264.81 83.2976V81.5407L274.783 79.5771L275.454 84.1244H275.661C276.798 82.6775 278.141 81.558 279.691 80.7656C281.242 79.9733 282.947 79.5771 284.807 79.5771C287.012 79.5771 288.786 79.8872 290.13 80.5073C291.507 81.0929 292.73 82.0919 293.798 83.5043C294.384 84.2966 294.901 85.3301 295.349 86.6047C295.796 87.8449 296.02 89.5673 296.02 91.772V99.058C296.02 100.47 296.055 101.59 296.124 102.417C296.227 103.209 296.416 103.829 296.692 104.277C297.002 104.69 297.45 104.966 298.036 105.104C298.621 105.242 299.413 105.345 300.412 105.414V107.481H284.239V105.414C285.272 105.379 286.082 105.293 286.667 105.155C287.287 104.983 287.753 104.69 288.063 104.277C288.373 103.864 288.579 103.278 288.683 102.52C288.786 101.728 288.838 100.694 288.838 99.4197V92.3921C288.838 90.6352 288.734 89.1539 288.528 87.9482C288.321 86.7425 287.976 85.7779 287.494 85.0545C287.046 84.2966 286.443 83.7627 285.686 83.4526C284.928 83.1082 283.98 82.9359 282.844 82.9359C281.741 82.9359 280.794 83.246 280.002 83.866C279.209 84.4861 278.52 85.3473 277.935 86.4497C277.625 87.0698 277.349 87.8793 277.108 88.8783C276.901 89.8429 276.798 90.8592 276.798 91.9271V99.058Z" fill="#E8451F"/>
<path d="M258.128 99.0072C258.128 100.385 258.18 101.488 258.283 102.314C258.386 103.141 258.593 103.778 258.903 104.226C259.213 104.674 259.661 104.984 260.246 105.156C260.832 105.294 261.624 105.38 262.623 105.415V107.482H246.346V105.415C247.311 105.38 248.086 105.277 248.672 105.105C249.292 104.898 249.757 104.588 250.067 104.175C250.411 103.727 250.635 103.124 250.739 102.366C250.876 101.574 250.945 100.575 250.945 99.3689V93.0131C250.945 91.0151 250.911 89.3787 250.842 88.1041C250.773 86.7951 250.687 85.8994 250.584 85.4171C250.411 84.5559 250.015 83.9875 249.395 83.7119C248.809 83.4363 247.724 83.2985 246.14 83.2985V81.5416L258.128 79.578V99.0072ZM250.532 68.6233C250.532 67.4865 250.911 66.5391 251.669 65.7813C252.461 64.9889 253.408 64.5928 254.511 64.5928C255.648 64.5928 256.595 64.9889 257.353 65.7813C258.145 66.5391 258.541 67.4865 258.541 68.6233C258.541 69.7257 258.145 70.673 257.353 71.4653C256.595 72.2232 255.648 72.6021 254.511 72.6021C253.408 72.6021 252.461 72.2232 251.669 71.4653C250.911 70.673 250.532 69.7257 250.532 68.6233Z" fill="#E8451F"/>
<path d="M226.409 82.9392V80.6139C228.476 80.0283 230.199 79.1499 231.577 77.9786C232.989 76.7729 234.04 75.3949 234.729 73.8447H237.364V80.0972H243.306V82.9392H237.364V98.8029C237.364 100.939 237.588 102.455 238.036 103.35C238.518 104.246 239.31 104.694 240.413 104.694C241.756 104.694 242.772 104.074 243.461 102.833L244.547 104.332C243.582 106.778 241.308 108.001 237.726 108.001C235.349 108.001 233.488 107.45 232.145 106.347C230.836 105.245 230.181 103.695 230.181 101.697V82.9392H226.409Z" fill="#E8451F"/>
<path d="M205.439 107.478H203.837V98.0732H206.007C206.593 100.554 207.437 102.362 208.539 103.499C209.642 104.636 211.071 105.204 212.828 105.204C214.103 105.204 215.084 104.946 215.773 104.429C216.497 103.878 216.859 103.137 216.859 102.207C216.859 101.242 216.428 100.312 215.567 99.4167C214.706 98.4866 213.31 97.5048 211.381 96.4713C208.763 95.0589 206.886 93.6637 205.749 92.2858C204.612 90.8734 204.044 89.2887 204.044 87.5318C204.044 86.395 204.25 85.3443 204.664 84.3797C205.112 83.3807 205.697 82.5195 206.421 81.7961C207.178 81.0727 208.074 80.5215 209.108 80.1425C210.141 79.7291 211.261 79.5225 212.466 79.5225C213.534 79.5225 214.585 79.6775 215.618 79.9875C216.686 80.2976 217.616 80.7282 218.409 81.2794L219.339 80.0392H220.682V87.8419H218.667C217.875 85.8783 217.048 84.4659 216.187 83.6046C215.36 82.7434 214.344 82.3128 213.138 82.3128C212.174 82.3128 211.398 82.5712 210.813 83.0879C210.262 83.6046 209.986 84.2936 209.986 85.1549C209.986 86.1194 210.399 87.0323 211.226 87.8935C212.087 88.7548 213.5 89.7021 215.463 90.7356C216.841 91.4935 218.03 92.2341 219.029 92.9575C220.028 93.681 220.837 94.4216 221.458 95.1795C222.078 95.9029 222.525 96.678 222.801 97.5048C223.111 98.2971 223.266 99.1583 223.266 100.088C223.266 101.294 223.042 102.379 222.594 103.344C222.146 104.308 221.509 105.135 220.682 105.824C219.856 106.513 218.857 107.047 217.685 107.426C216.549 107.805 215.274 107.994 213.862 107.994C212.38 107.994 211.002 107.805 209.728 107.426C208.453 107.013 207.402 106.427 206.576 105.669L205.439 107.478Z" fill="#E8451F"/>
<path d="M198.721 102.675C195.586 106.223 191.676 107.997 186.991 107.997C184.856 107.997 182.909 107.67 181.152 107.016C179.43 106.327 177.949 105.379 176.708 104.174C175.468 102.933 174.504 101.469 173.815 99.7814C173.126 98.0934 172.781 96.216 172.781 94.149C172.781 92.0132 173.143 90.0668 173.866 88.3099C174.59 86.5186 175.606 84.9856 176.915 83.711C178.259 82.402 179.826 81.3857 181.617 80.6623C183.443 79.9389 185.441 79.5771 187.611 79.5771C191.263 79.5771 194.105 80.5589 196.138 82.5225C198.17 84.4861 199.186 87.242 199.186 90.7903C199.186 91.3414 199.1 91.6859 198.928 91.8237C198.756 91.9271 198.273 91.9787 197.481 91.9787H180.842C180.704 92.2888 180.636 92.8572 180.636 93.684C180.636 97.06 181.359 99.7297 182.806 101.693C184.287 103.657 186.285 104.639 188.8 104.639C190.247 104.639 191.676 104.311 193.089 103.657C194.536 103.002 195.931 102.072 197.274 100.867L198.721 102.675ZM188.697 89.085C190.075 89.085 190.953 89.0161 191.332 88.8783C191.745 88.7061 191.952 88.3272 191.952 87.7415C191.952 86.2258 191.521 84.9856 190.66 84.021C189.799 83.0565 188.714 82.5742 187.405 82.5742C185.924 82.5742 184.597 83.1943 183.426 84.4344C182.289 85.6401 181.548 87.1904 181.204 89.085H188.697Z" fill="#E8451F"/>
<path d="M125.144 107.479V105.412C126.28 105.378 127.193 105.291 127.882 105.154C128.606 104.981 129.157 104.689 129.536 104.275C129.949 103.827 130.225 103.242 130.363 102.518C130.5 101.76 130.569 100.761 130.569 99.5212V75.6481C130.569 74.4424 130.518 73.4778 130.414 72.7544C130.311 71.9965 130.087 71.4109 129.742 70.9975C129.398 70.5497 128.916 70.2569 128.296 70.1191C127.71 69.9468 126.935 69.8263 125.97 69.7574V67.6904H145.606C148.913 67.6904 151.962 68.2072 154.752 69.2406C157.543 70.2741 159.954 71.7037 161.987 73.5295C164.019 75.3553 165.604 77.5256 166.741 80.0404C167.877 82.5551 168.446 85.2938 168.446 88.2564C168.446 91.0812 167.912 93.6821 166.844 96.0591C165.776 98.4016 164.277 100.417 162.348 102.105C160.454 103.793 158.163 105.119 155.476 106.084C152.823 107.014 149.895 107.479 146.691 107.479H125.144ZM139.044 70.8425C138.458 70.8425 138.165 71.1353 138.165 71.721V98.4361C138.165 100.434 138.785 101.915 140.025 102.88C141.266 103.845 143.178 104.327 145.761 104.327C150.274 104.327 153.736 102.966 156.148 100.245C158.593 97.5232 159.816 93.5615 159.816 88.3598C159.816 85.6039 159.489 83.1408 158.835 80.9705C158.18 78.8002 157.233 76.9744 155.993 75.4931C154.752 73.9774 153.237 72.8233 151.445 72.031C149.688 71.2387 147.708 70.8425 145.503 70.8425H139.044Z" fill="#E8451F"/>
<path d="M292.73 34.4154C292.73 35.7934 292.782 36.8957 292.885 37.7225C292.989 38.5493 293.195 39.1866 293.505 39.6344C293.816 40.0823 294.263 40.3923 294.849 40.5645C295.435 40.7023 296.227 40.7885 297.226 40.8229V42.8898H280.949V40.8229C281.913 40.7885 282.689 40.6851 283.274 40.5129C283.894 40.3062 284.359 39.9961 284.669 39.5827C285.014 39.1349 285.238 38.5321 285.341 37.7742C285.479 36.9819 285.548 35.9828 285.548 34.7771V13.436C285.548 11.438 285.513 9.80169 285.444 8.52708C285.376 7.21802 285.289 6.32235 285.186 5.84006C285.014 4.97884 284.618 4.41043 283.998 4.13484C283.412 3.85925 282.327 3.72146 280.742 3.72146V1.96456L292.73 0.000976562V34.4154Z" fill="#E8451F"/>
<path d="M277.643 38.0814C274.508 41.6296 270.598 43.4037 265.913 43.4037C263.777 43.4037 261.831 43.0765 260.074 42.4219C258.352 41.733 256.87 40.7856 255.63 39.5799C254.39 38.3397 253.426 36.8757 252.737 35.1877C252.048 33.4997 251.703 31.6222 251.703 29.5553C251.703 27.4194 252.065 25.4731 252.788 23.7162C253.512 21.9249 254.528 20.3919 255.837 19.1173C257.181 17.8082 258.748 16.792 260.539 16.0685C262.365 15.3451 264.363 14.9834 266.533 14.9834C270.185 14.9834 273.027 15.9652 275.059 17.9288C277.092 19.8924 278.108 22.6483 278.108 26.1965C278.108 26.7477 278.022 27.0922 277.85 27.23C277.678 27.3333 277.195 27.385 276.403 27.385H259.764C259.626 27.695 259.557 28.2634 259.557 29.0902C259.557 32.4662 260.281 35.136 261.728 37.0996C263.209 39.0632 265.207 40.045 267.722 40.045C269.169 40.045 270.598 39.7177 272.011 39.0632C273.458 38.4086 274.853 37.4785 276.196 36.2728L277.643 38.0814ZM267.619 24.4913C268.996 24.4913 269.875 24.4224 270.254 24.2846C270.667 24.1124 270.874 23.7334 270.874 23.1478C270.874 21.632 270.443 20.3919 269.582 19.4273C268.721 18.4627 267.636 17.9805 266.327 17.9805C264.845 17.9805 263.519 18.6005 262.348 19.8407C261.211 21.0464 260.47 22.5966 260.126 24.4913H267.619Z" fill="#E8451F"/>
<path d="M223.826 22.1698C223.447 21.1707 223.085 20.3784 222.741 19.7928C222.396 19.1727 222.035 18.7077 221.656 18.3976C221.311 18.0531 220.915 17.8292 220.467 17.7259C220.054 17.6225 219.554 17.5708 218.969 17.5708V15.5039H234.419V17.5708C233.558 17.5708 232.869 17.6053 232.352 17.6742C231.87 17.7431 231.491 17.8464 231.215 17.9842C230.974 18.122 230.819 18.3115 230.75 18.5526C230.681 18.7593 230.647 19.0005 230.647 19.2761C230.647 19.7239 230.733 20.2406 230.905 20.8263C231.078 21.4119 231.284 21.9975 231.525 22.5832L236.434 36.1216H236.641L242.17 22.6348C242.411 22.0492 242.601 21.5325 242.738 21.0846C242.876 20.6023 242.945 20.1717 242.945 19.7928C242.945 19.0349 242.687 18.4837 242.17 18.1392C241.653 17.7948 240.74 17.6053 239.431 17.5708V15.5039H250.851V17.5708C249.921 17.5708 249.112 17.812 248.423 18.2943C247.768 18.7766 247.079 19.8445 246.356 21.498L236.693 43.4075H231.99L223.826 22.1698Z" fill="#E8451F"/>
<path d="M207.971 28.1601C205.077 29.4692 202.89 30.6921 201.408 31.8289C199.962 32.9313 199.238 34.0853 199.238 35.291C199.238 36.29 199.514 37.0824 200.065 37.668C200.616 38.2536 201.305 38.5464 202.132 38.5464C202.959 38.5464 203.734 38.4086 204.457 38.1331C205.181 37.823 205.801 37.4269 206.317 36.9446C206.834 36.4623 207.23 35.8939 207.506 35.2393C207.816 34.5504 207.971 33.8269 207.971 33.0691V28.1601ZM207.971 25.4214V23.2511C207.971 21.2531 207.609 19.8062 206.886 18.9106C206.197 17.9805 205.112 17.5154 203.63 17.5154C202.631 17.5154 201.873 17.791 201.357 18.3422C200.84 18.8589 200.358 19.7373 199.91 20.9775C199.6 21.8387 199.152 22.5105 198.566 22.9928C198.015 23.475 197.24 23.7162 196.241 23.7162C195.276 23.7162 194.536 23.4234 194.019 22.8377C193.502 22.2521 193.244 21.4253 193.244 20.3574C193.244 18.7039 194.14 17.3948 195.931 16.4303C197.757 15.4657 200.495 14.9834 204.147 14.9834C208.005 14.9834 210.761 15.6896 212.415 17.102C214.068 18.48 214.895 20.8053 214.895 24.0779V35.3944C214.895 38.3225 215.481 39.7866 216.652 39.7866C217.307 39.7866 217.909 39.5627 218.461 39.1148L219.236 40.6134C218.753 41.4746 217.996 42.1636 216.962 42.6803C215.963 43.1626 214.826 43.4037 213.552 43.4037C211.967 43.4037 210.761 42.9214 209.934 41.9569C209.108 40.9923 208.694 39.6316 208.694 37.8747H208.436C207.437 39.666 206.145 41.0268 204.56 41.9569C202.976 42.887 201.167 43.3521 199.135 43.3521C196.964 43.3521 195.225 42.7492 193.916 41.5435C192.607 40.3033 191.952 38.7015 191.952 36.7379C191.952 35.2221 192.624 33.8097 193.967 32.5007C195.311 31.1572 197.55 29.8481 200.685 28.5735L207.971 25.4214Z" fill="#E8451F"/>
<path d="M177.791 34.8776C177.791 36.2211 177.843 37.2891 177.946 38.0814C178.084 38.8393 178.342 39.4249 178.721 39.8383C179.1 40.2517 179.651 40.5272 180.375 40.665C181.098 40.7684 182.063 40.8201 183.268 40.8201V42.887H166.009V40.8201C167.043 40.7512 167.87 40.6478 168.49 40.51C169.11 40.3722 169.575 40.0966 169.885 39.6833C170.195 39.2699 170.384 38.6842 170.453 37.9264C170.557 37.134 170.608 36.0833 170.608 34.7743V28.4701C170.608 26.3343 170.557 24.6291 170.453 23.3545C170.35 22.0799 170.126 21.0981 169.782 20.4091C169.437 19.7201 168.938 19.2723 168.283 19.0656C167.663 18.8244 166.836 18.7039 165.803 18.7039V16.8953L176.137 14.9834L176.964 20.9258H177.171C178.101 19.1 179.324 17.6532 180.84 16.5853C182.355 15.5174 183.957 14.9834 185.645 14.9834C186.954 14.9834 188.022 15.3107 188.849 15.9652C189.676 16.6197 190.089 17.4465 190.089 18.4455C190.089 19.5479 189.762 20.478 189.107 21.2359C188.487 21.9937 187.626 22.3727 186.524 22.3727C186.007 22.3727 185.542 22.2693 185.129 22.0626C184.715 21.856 184.336 21.632 183.992 21.3909C183.682 21.1153 183.354 20.8742 183.01 20.6675C182.7 20.4263 182.373 20.3058 182.028 20.3058C181.374 20.3058 180.754 20.7364 180.168 21.5976C179.582 22.4588 179.1 23.6128 178.721 25.0597C178.445 26.0932 178.222 27.2644 178.049 28.5735C177.877 29.8481 177.791 31.1227 177.791 32.3973V34.8776Z" fill="#E8451F"/>
<path d="M165.449 14.4687H163.227C163.123 12.7807 162.865 11.3855 162.452 10.2832C162.073 9.14637 161.522 8.25069 160.798 7.59617C160.075 6.90719 159.196 6.44213 158.163 6.20099C157.129 5.92539 155.924 5.7876 154.546 5.7876C153.202 5.7876 152.117 5.82205 151.29 5.89095C150.498 5.92539 149.878 6.01152 149.43 6.14931C149.017 6.25266 148.741 6.40768 148.603 6.61437C148.465 6.82107 148.397 7.07943 148.397 7.38947V34.4663C148.397 35.5687 148.465 36.516 148.603 37.3083C148.776 38.1007 149.103 38.7552 149.585 39.2719C150.067 39.7542 150.774 40.1331 151.704 40.4087C152.634 40.6499 153.857 40.7877 155.372 40.8221V42.8891H133.721V40.8221C135.272 40.7877 136.512 40.6499 137.442 40.4087C138.372 40.1331 139.078 39.7542 139.56 39.2719C140.077 38.7552 140.404 38.1007 140.542 37.3083C140.714 36.516 140.801 35.5687 140.801 34.4663V7.38947C140.801 7.07943 140.732 6.82107 140.594 6.61437C140.491 6.40768 140.249 6.25266 139.87 6.14931C139.492 6.01152 138.94 5.92539 138.217 5.89095C137.528 5.82205 136.615 5.7876 135.478 5.7876C134.238 5.7876 133.05 5.8565 131.913 5.99429C130.776 6.09764 129.777 6.44213 128.916 7.02776C128.054 7.57894 127.348 8.44016 126.797 9.61142C126.28 10.7482 126.005 12.3673 125.97 14.4687H123.955L124.472 3.10059H164.932L165.449 14.4687Z" fill="#E8451F"/>
</svg>
